<svg xmlns="http://www.w3.org/2000/svg" version="1.1" width="1920px" height="1080px" style="shape-rendering:geometricPrecision; text-rendering:geometricPrecision; image-rendering:optimizeQuality; fill-rule:evenodd; clip-rule:evenodd" xmlns:xlink="http://www.w3.org/1999/xlink">
<g><path style="opacity:0.984" fill="#FFFFFF" d="M 986.5,80.5 C 987.75,80.5774 988.583,81.244 989,82.5C 987.784,371.165 986.117,659.831 984,948.5C 979.24,945.956 974.24,943.956 969,942.5C 967.739,942.759 966.739,943.426 966,944.5C 964.303,946.699 962.803,949.032 961.5,951.5C 968.921,955.627 976.421,959.627 984,963.5C 984.833,982.509 984.666,1001.51 983.5,1020.5C 943.689,1007.29 904.022,993.785 864.5,980C 865.327,961.573 865.827,943.073 866,924.5C 875.237,921.129 884.404,917.629 893.5,914C 880.316,908.496 867.15,902.996 854,897.5C 852.667,879.516 852.334,861.516 853,843.5C 865.972,838.455 878.805,833.122 891.5,827.5C 854.945,813.313 818.278,799.313 781.5,785.5C 780.146,767.947 778.813,750.447 777.5,733C 820.5,714.167 863.5,695.333 906.5,676.5C 879.474,664.545 852.307,652.879 825,641.5C 801.021,652.082 776.855,661.915 752.5,671C 711.371,624.202 669.871,577.702 628,531.5C 627.517,530.552 627.351,529.552 627.5,528.5C 691.232,524.781 754.899,520.448 818.5,515.5C 828.366,539.397 838.366,563.231 848.5,587C 880.459,600.597 912.459,614.097 944.5,627.5C 945.666,616.181 945.832,604.848 945,593.5C 907.153,548.322 869.32,503.155 831.5,458C 883.271,332.183 934.937,206.35 986.5,80.5 Z M 942.5,721.5 C 943.827,725.783 944.493,730.449 944.5,735.5C 945.414,752.495 945.581,769.495 945,786.5C 919.572,775.871 894.072,765.371 868.5,755C 893.376,744.058 918.042,732.891 942.5,721.5 Z M 944.5,858.5 C 945.653,864.319 945.819,870.319 945,876.5C 943.483,873.657 941.983,870.823 940.5,868C 941.984,864.87 943.317,861.703 944.5,858.5 Z"/></g>
<g><path style="opacity:0.969" fill="#FFFFFF" d="M 992.5,81.5 C 994.335,82.1223 995.502,83.4556 996,85.5C 1046.5,208.505 1097,331.505 1147.5,454.5C 1109.89,499.953 1072.05,545.286 1034,590.5C 1033.33,601.5 1033.33,612.5 1034,623.5C 1065.98,609.674 1098.15,596.34 1130.5,583.5C 1139.26,559.973 1148.59,536.64 1158.5,513.5C 1161.33,513.167 1164.17,512.833 1167,512.5C 1228.49,516.788 1289.99,520.788 1351.5,524.5C 1351.66,525.873 1351.49,527.207 1351,528.5C 1309.13,574.702 1267.63,621.202 1226.5,668C 1225.17,668.667 1223.83,668.667 1222.5,668C 1199.71,657.935 1176.71,648.435 1153.5,639.5C 1126.32,650.173 1099.32,661.339 1072.5,673C 1114.83,691.167 1157.17,709.333 1199.5,727.5C 1200.24,745.862 1199.58,764.196 1197.5,782.5C 1160.87,796.432 1124.21,810.265 1087.5,824C 1100.21,829.069 1112.87,834.236 1125.5,839.5C 1126.68,857.84 1126.51,876.173 1125,894.5C 1112.07,899.809 1099.23,905.309 1086.5,911C 1095.35,914.172 1104.18,917.338 1113,920.5C 1113.5,939.83 1113.67,959.164 1113.5,978.5C 1073.7,991.034 1034.04,1004.03 994.5,1017.5C 993.334,998.175 993.167,978.842 994,959.5C 1001.42,955.539 1008.92,951.706 1016.5,948C 1014.33,944.785 1011.83,941.952 1009,939.5C 1004.11,941.362 999.276,943.362 994.5,945.5C 993.256,657.501 992.589,369.501 992.5,81.5 Z M 1034.5,718.5 C 1058.92,729.307 1083.26,740.307 1107.5,751.5C 1083.29,761.771 1058.96,771.771 1034.5,781.5C 1033.7,760.508 1033.7,739.508 1034.5,718.5 Z M 1033.5,857.5 C 1035.06,859.608 1036.39,861.941 1037.5,864.5C 1036.53,866.63 1035.37,868.63 1034,870.5C 1033.5,866.179 1033.33,861.846 1033.5,857.5 Z"/></g>
</svg>
